<?xml version="1.0" standalone="no"?>
<!DOCTYPE svg PUBLIC "-//W3C//DTD SVG 20010904//EN"
 "http://www.w3.org/TR/2001/REC-SVG-20010904/DTD/svg10.dtd">
<svg version="1.0" xmlns="http://www.w3.org/2000/svg"
 width="591.000000pt" height="591.000000pt" viewBox="0 0 591.000000 591.000000"
 preserveAspectRatio="xMidYMid meet">
<circle cx="300" cy="300" r="290" fill="#ffffff"/>
<g transform="translate(0.000000,591.000000) scale(0.100000,-0.100000)"
fill="#191414" stroke="none">
<path d="M3012 5300 c-75 -14 -188 -60 -258 -105 -77 -50 -1223 -1194 -1287
-1286 -61 -86 -132 -235 -159 -334 -19 -70 -22 -104 -22 -270 0 -178 2 -196
27 -278 55 -179 144 -324 273 -447 129 -123 275 -206 439 -250 97 -26 357 -40
393 -21 32 17 29 64 -5 86 -44 30 -84 77 -112 135 -21 46 -26 69 -26 135 1
150 -38 104 734 880 622 625 690 697 724 761 104 198 104 452 0 646 -79 147
-225 269 -387 323 -88 30 -242 41 -334 25z"/>
<path d="M3482 3724 c-35 -24 -29 -69 14 -107 115 -102 153 -260 95 -393 -18
-40 -151 -178 -740 -769 -395 -396 -732 -739 -749 -761 -43 -56 -98 -174 -118
-254 -23 -92 -16 -280 15 -370 68 -199 230 -360 431 -432 57 -20 84 -23 215
-23 138 0 156 2 223 27 147 53 151 57 845 748 362 360 681 684 708 720 69 89
154 266 181 375 19 75 22 116 22 250 -1 140 -4 172 -27 258 -99 370 -396 650
-772 728 -117 24 -310 26 -343 3z"/>
</g>
</svg>
